#define grid_width 12
#define grid_height 12
static unsigned char grid_bits[] = {
   0x00, 0x00, 0x00, 0x00, 0x9c, 0x03, 0x9c, 0x03, 0x00, 0x00, 0x9c, 0x03,
   0x9c, 0x03, 0x00, 0x00, 0x9c, 0x03, 0x9c, 0x03, 0x00, 0x00, 0x00, 0x00 };
